# File exported by Houdini 15.0.374 (www.sidefx.com)
# 39 points
# 145 vertices
# 39 primitives
# Bounds: [-0.221102998, 0.000613749027, -0.241760999] to [0.194113001, 0.295075685, 0.181250393]
g 
v -0.0518429987 0.225738004 0.158515006
v 0.0870351642 0.137527645 0.168627858
v 0.133309007 0.161997005 0.110284999
v -0.0840329975 0.259323001 0.117771
v -0.0076700002 0.295024991 -0.0555189997
v 0.0824659988 0.257230997 -0.117735997
v 0.194113001 0.153215006 -0.0122400001
v 0.187306002 0.0820579976 -0.0420910008
v 0.156054005 0.00438199984 -0.0167810004
v 0.110831998 0.00329899997 0.123125002
v 0.0136569999 0.0026159999 0.153743997
v -0.100855827 0.000613749027 0.127382576
v 0.0906098187 0.197770596 0.125194639
v -0.0361493826 0.295075685 0.0357920825
v -0.207158998 0.193568006 0.0421239994
v -0.207633004 0.214113995 -0.0252100006
v -0.149362445 0.286938906 -0.0927204192
v -0.184471965 0.261110246 -0.0741848946
v -0.221102998 0.0929069966 0.0107530002
v -0.205869004 0.108554997 -0.0518469997
v -0.152026996 0.00242600008 0.0442010015
v -0.163392007 0.00114800001 -0.0451080017
v -0.179842412 0.163339987 -0.101206541
v -0.162227005 0.0414891914 -0.120893821
v -0.126868904 0.180600107 -0.189033017
v -0.118711501 0.114647329 -0.216835588
v -0.041069001 0.187338993 -0.200580999
v -0.0466209985 0.0985890031 -0.241760999
v 0.0551030003 0.175968006 -0.200176999
v 0.0355410017 0.116045997 -0.235387996
v 0.0528135225 0.225994945 -0.168031305
v -0.0249682441 0.258840173 -0.162601799
v 0.140717 0.116480999 -0.132030994
v 0.108216003 0.0633189976 -0.158357993
v -0.0555660017 0.000635000004 -0.149366006
v 0.0339130014 0.00640100008 -0.170231998
v 0.102897003 0.00113999995 -0.123580001
v -0.0344269872 0.0886226445 0.181250393
v -0.139308691 0.094499588 0.121102139
vt 0.538781762 0.290505439 0
vt 0.328131825 0.235073388 0
vt 0.432974547 0.164137125 0
vt 0.432974547 0.164137125 0
vt 0.22525081 0.122515924 0
vt 0.343555629 0.042305205 0
vt 0.415027738 0.0883641392 0
vt 0.22525081 0.122515924 0
vt 0.432974547 0.164137125 0
vt 0.328131825 0.235073388 0
vt 0.257831186 0.262572646 0
vt 0.297811061 0.419844806 0
vt 0.324109823 0.28393957 0
vt 0.347121 0.44397831 0
vt 0.538781762 0.290505439 0
vt 0.324109823 0.28393957 0
vt 0.328131825 0.235073388 0
vt 0.324109823 0.28393957 0
vt 0.42223534 0.404535025 0
vt 0.347121 0.44397831 0
vt 0.42223534 0.404535025 0
vt 0.324109823 0.28393957 0
vt 0.538781762 0.290505439 0
vt 0.495154858 0.375475854 0
vt 0.42223534 0.404535025 0
vt 0.463405192 0.573791087 0
vt 0.394609958 0.581043661 0
vt 0.347121 0.44397831 0
vt 0.42223534 0.404535025 0
vt 0.495154858 0.375475854 0
vt 0.542055547 0.498844951 0
vt 0.516067207 0.534738004 0
vt 0.516067207 0.534738004 0
vt 0.463405192 0.573791087 0
vt 0.42223534 0.404535025 0
vt 0.463405192 0.573791087 0
vt 0.483755171 0.682125866 0
vt 0.415027738 0.697963893 0
vt 0.394609958 0.581043661 0
vt 0.483755171 0.682125866 0
vt 0.492102444 0.803567886 0
vt 0.39775613 0.823988318 0
vt 0.415027738 0.697963893 0
vt 0.463405192 0.573791087 0
vt 0.516067207 0.534738004 0
vt 0.542276621 0.626669347 0
vt 0.483755171 0.682125866 0
vt 0.483755171 0.682125866 0
vt 0.542276621 0.626669347 0
vt 0.568745375 0.753021419 0
vt 0.492102444 0.803567886 0
vt 0.516067207 0.534738004 0
vt 0.542055547 0.498844951 0
vt 0.645932138 0.605529368 0
vt 0.542276621 0.626669347 0
vt 0.542276621 0.626669347 0
vt 0.645932138 0.605529368 0
vt 0.677176595 0.674104571 0
vt 0.568745375 0.753021419 0
vt 0.677321017 0.455725789 0
vt 0.663743973 0.373753905 0
vt 0.74823308 0.36456275 0
vt 0.745611191 0.434328973 0
vt 0.663743973 0.373753905 0
vt 0.657589495 0.279857576 0
vt 0.728812516 0.291328818 0
vt 0.74823308 0.36456275 0
vt 0.597412229 0.291675091 0
vt 0.59054178 0.371922195 0
vt 0.495154858 0.375475854 0
vt 0.538781762 0.290505439 0
vt 0.59054178 0.371922195 0
vt 0.597412229 0.291675091 0
vt 0.657589495 0.279857576 0
vt 0.663743973 0.373753905 0
vt 0.636099875 0.248346835 0
vt 0.558674216 0.160839692 0
vt 0.609301388 0.12585783 0
vt 0.690659344 0.203756183 0
vt 0.558674216 0.160839692 0
vt 0.477616489 0.104369186 0
vt 0.498222053 0.0233374834 0
vt 0.609301388 0.12585783 0
vt 0.636099875 0.248346835 0
vt 0.597412229 0.291675091 0
vt 0.538781762 0.290505439 0
vt 0.558674216 0.160839692 0
vt 0.538781762 0.290505439 0
vt 0.432974547 0.164137125 0
vt 0.477616489 0.104369186 0
vt 0.558674216 0.160839692 0
vt 0.728812516 0.291328818 0
vt 0.848910451 0.287870079 0
vt 0.868332922 0.372076273 0
vt 0.74823308 0.36456275 0
vt 0.690659344 0.203756183 0
vt 0.609301388 0.12585783 0
vt 0.606431246 0.0585908853 0
vt 0.685943842 0.0798705295 0
vt 0.609301388 0.12585783 0
vt 0.498222053 0.0233374834 0
vt 0.606431246 0.0585908853 0
vt 0.186150983 0.486813515 0
vt 0.259137392 0.568180203 0
vt 0.167986721 0.599540591 0
vt 0.0944695324 0.51057291 0
vt 0.259137392 0.568180203 0
vt 0.186150983 0.486813515 0
vt 0.297811061 0.419844806 0
vt 0.347121 0.44397831 0
vt 0.186150983 0.486813515 0
vt 0.147152126 0.371401131 0
vt 0.297811061 0.419844806 0
vt 0.147152126 0.371401131 0
vt 0.186150983 0.486813515 0
vt 0.0944695324 0.51057291 0
vt 0.0264934301 0.439614087 0
vt 0.347121 0.44397831 0
vt 0.394609958 0.581043661 0
vt 0.340651691 0.669447839 0
vt 0.259137392 0.568180203 0
vt 0.225133657 0.677188337 0
vt 0.167986721 0.599540591 0
vt 0.259137392 0.568180203 0
vt 0.340651691 0.669447839 0
vt 0.745611191 0.434328973 0
vt 0.74823308 0.36456275 0
vt 0.868332922 0.372076273 0
vt 0.85612005 0.48177138 0
vt 0.868332922 0.372076273 0
vt 0.935417235 0.495680898 0
vt 0.85612005 0.48177138 0
vt 0.663743973 0.373753905 0
vt 0.677321017 0.455725789 0
vt 0.542055547 0.498844951 0
vt 0.59054178 0.371922195 0
vt 0.542055547 0.498844951 0
vt 0.495154858 0.375475854 0
vt 0.59054178 0.371922195 0
vt 0.324109823 0.28393957 0
vt 0.257831186 0.262572646 0
vt 0.328131825 0.235073388 0
vt 0.257831186 0.262572646 0
vt 0.324109823 0.28393957 0
vt 0.297811061 0.419844806 0
vn -0.254644543 0.484909177 0.836671531
vn 0.45103544 0.121490486 0.884198546
vn 0.862157643 0.188163534 0.470402598
vn -0.336213559 0.755256832 0.562625706
vn 0.212486103 0.974630773 -0.0703179836
vn 0.511320412 0.784883499 -0.350013465
vn 0.943623185 0.331006199 -0.00318344729
vn 0.95328635 -0.251917362 -0.166681245
vn 0.932474136 -0.360372037 -0.0249794181
vn 0.70693773 -0.186034262 0.682371259
vn 0.125649184 -0.237786815 0.963156164
vn -0.501712739 -0.148479551 0.852196097
vn 0.508778095 0.696335912 0.506222427
vn 0.0600722581 0.971948147 0.227394104
vn -0.789654732 0.266037166 0.55287379
vn -0.906946301 0.419878095 0.033922635
vn -0.418666244 0.900665164 -0.116279989
vn -0.788910031 0.576117754 -0.21379739
vn -0.955404997 -0.285510927 0.0753976703
vn -0.873028278 -0.173844531 -0.455631107
vn -0.803047299 -0.485151112 0.346039683
vn -0.853717625 -0.506415188 -0.121283635
vn -0.879000306 0.0322604962 -0.47572872
vn -0.782758057 -0.456391394 -0.423080206
vn -0.538421929 0.389972538 -0.747009516
vn -0.594231904 -0.108333185 -0.796964526
vn -0.0539785847 0.451910019 -0.890428841
vn -0.106061734 -0.209769309 -0.971981347
vn 0.442830235 0.42620185 -0.78883028
vn 0.342566788 0.0361999571 -0.938795805
vn 0.39259854 0.575267613 -0.717588782
vn 0.0300196148 0.744817734 -0.66659236
vn 0.826414287 0.109904476 -0.552232325
vn 0.691989779 -0.311380297 -0.65130049
vn -0.31197834 -0.67714119 -0.666445196
vn 0.177560613 -0.504682899 -0.84484756
vn 0.728058636 -0.381021291 -0.569871306
vn -0.222867623 -0.16493313 0.960795105
vn -0.689599752 0.00680039497 0.724158764
g 
f 6/1/6 3/2/3 7/3/7
f 7/4/7 10/5/10 9/6/9 8/7/8
f 10/8/10 7/9/7 3/10/3 2/11/2
f 1/12/1 13/13/13 4/14/4
f 6/15/6 13/16/13 3/17/3
f 13/18/13 14/19/14 4/20/4
f 14/21/14 13/22/13 6/23/6 5/24/5
f 14/25/14 16/26/16 15/27/15 4/28/4
f 14/29/14 5/30/5 17/31/17 18/32/18
f 18/33/18 16/34/16 14/35/14
f 16/36/16 20/37/20 19/38/19 15/39/15
f 20/40/20 22/41/22 21/42/21 19/43/19
f 16/44/16 18/45/18 23/46/23 20/47/20
f 20/48/20 23/49/23 24/50/24 22/51/22
f 18/52/18 17/53/17 25/54/25 23/55/23
f 23/56/23 25/57/25 26/58/26 24/59/24
f 25/60/25 27/61/27 28/62/28 26/63/26
f 27/64/27 29/65/29 30/66/30 28/67/28
f 31/68/31 32/69/32 5/70/5 6/71/6
f 32/72/32 31/73/31 29/74/29 27/75/27
f 29/76/29 33/77/33 34/78/34 30/79/30
f 33/80/33 8/81/8 9/82/9 34/83/34
f 29/84/29 31/85/31 6/86/6 33/87/33
f 6/88/6 7/89/7 8/90/8 33/91/33
f 30/92/30 36/93/36 35/94/35 28/95/28
f 30/96/30 34/97/34 37/98/37 36/99/36
f 34/100/34 9/101/9 37/102/37
f 38/103/38 39/104/39 12/105/12 11/106/11
f 39/107/39 38/108/38 1/109/1 4/110/4
f 38/111/38 2/112/2 1/113/1
f 2/114/2 38/115/38 11/116/11 10/117/10
f 4/118/4 15/119/15 19/120/19 39/121/39
f 21/122/21 12/123/12 39/124/39 19/125/19
f 26/126/26 28/127/28 35/128/35 24/129/24
f 35/130/35 22/131/22 24/132/24
f 27/133/27 25/134/25 17/135/17 32/136/32
f 17/137/17 5/138/5 32/139/32
f 13/140/13 2/141/2 3/142/3
f 2/143/2 13/144/13 1/145/1
