# File created by Luuv tsx 1.1.4
# Created on: Tue May 11 11:25:23 2010 -1
# Vertices: 12
# Texture vertices: 40
# Normals: 12
# Faces: 10

mtllib boardwalk1.mtl
v -1.000000 -0.050000 -2.000000
v -1.000000 0.050000 -2.000000
v 1.000000 -0.050000 -2.000000
v 1.000000 0.050000 -2.000000
v 1.000000 -0.050000 2.000000
v 1.000000 0.050000 2.000000
v -1.000000 -0.050000 2.000000
v -1.000000 0.050000 2.000000
v 1.000000 0.000000 -2.000000
v -1.000000 0.000000 -2.000000
v 1.000000 0.000000 2.000000
v -1.000000 0.000000 2.000000

vt 0.988093 0.012195
vt 0.511907 0.012195
vt 0.511907 0.000001
vt 0.988093 0.000001
vt 0.488093 0.987806
vt 0.488094 0.012195
vt 0.500000 0.012195
vt 0.500000 0.987806
vt 0.011907 0.987805
vt 0.488093 0.987806
vt 0.488093 1.000000
vt 0.011907 1.000000
vt 0.988093 0.987806
vt 0.988093 0.012195
vt 1.000000 0.012195
vt 1.000000 0.987806
vt 0.988093 0.987806
vt 0.511907 0.987806
vt 0.511907 0.012195
vt 0.988093 0.012195
vt 0.011908 0.012195
vt 0.488094 0.012195
vt 0.488093 0.987806
vt 0.011907 0.987805
vt 0.488094 0.012195
vt 0.011908 0.012195
vt 0.011908 0.000000
vt 0.488094 0.000001
vt 0.511907 0.012195
vt 0.511907 0.987806
vt 0.500000 0.987806
vt 0.500000 0.012195
vt 0.511907 0.987806
vt 0.988093 0.987806
vt 0.988093 1.000000
vt 0.511907 1.000000
vt 0.011908 0.012195
vt 0.011907 0.987805
vt 0.000000 0.987806
vt 0.000001 0.012194

vn -0.577350 -0.577350 -0.577350
vn -0.577350 0.577350 -0.577350
vn 0.577350 -0.577350 -0.577350
vn 0.577350 0.577350 -0.577350
vn 0.577350 -0.577350 0.577350
vn 0.577350 0.577350 0.577350
vn -0.577350 -0.577350 0.577350
vn -0.577350 0.577350 0.577350
vn 0.707107 0.000000 -0.707107
vn -0.707107 0.000000 -0.707107
vn 0.707107 0.000000 0.707107
vn -0.707107 0.000000 0.707107

mtllib boardwalk1.mtl

g Default
s 1
usemtl boardwalk1
f 9/3/9 10/4/10 2/1/2 4/2/4
f 9/7/9 11/8/11 5/5/5 3/6/3
f 5/10/5 11/11/11 12/12/12 7/9/7
f 10/15/10 12/16/12 8/13/8 2/14/2
f 8/17/8 6/18/6 4/19/4 2/20/2
f 1/21/1 3/22/3 5/23/5 7/24/7
f 1/26/1 10/27/10 9/28/9 3/25/3
f 4/29/4 6/30/6 11/31/11 9/32/9
f 11/36/11 6/33/6 8/34/8 12/35/12
f 1/37/1 7/38/7 12/39/12 10/40/10

# The end.
