# File created by Luuv tsx 1.1.4
# Created on: Tue May 11 11:25:38 2010 -1
# Vertices: 16
# Texture vertices: 48
# Normals: 16
# Faces: 12

mtllib boardwalk3.mtl
v -0.975000 -0.150000 -2.000000
v -0.975000 -0.050000 -2.000000
v -0.675000 -0.150000 -2.000000
v -0.675000 -0.050000 -2.000000
v -0.675000 -0.150000 2.000000
v -0.675000 -0.050000 2.000000
v -0.975000 -0.150000 2.000000
v -0.975000 -0.050000 2.000000
v 0.675000 -0.150000 -2.000000
v 0.675000 -0.050000 -2.000000
v 0.975000 -0.150000 -2.000000
v 0.975000 -0.050000 -2.000000
v 0.975000 -0.150000 2.000000
v 0.975000 -0.050000 2.000000
v 0.675000 -0.150000 2.000000
v 0.675000 -0.050000 2.000000

vt 0.685475 0.004969
vt 0.685475 0.028542
vt 0.544056 0.028542
vt 0.544056 0.004969
vt 0.544056 0.028542
vt 0.544056 0.971459
vt 0.496918 0.971459
vt 0.496918 0.028542
vt 0.544056 0.995032
vt 0.544056 0.971459
vt 0.685475 0.971459
vt 0.685475 0.995032
vt 0.732613 0.028541
vt 0.732613 0.971459
vt 0.685475 0.971459
vt 0.685475 0.028542
vt 0.685475 0.971459
vt 0.544056 0.971459
vt 0.544056 0.028542
vt 0.685475 0.028542
vt 0.732613 0.028541
vt 0.874032 0.028541
vt 0.874030 0.971459
vt 0.732613 0.971459
vt 0.304589 0.004968
vt 0.304589 0.028541
vt 0.163170 0.028541
vt 0.163170 0.004968
vt 0.163170 0.028541
vt 0.163170 0.971459
vt 0.116032 0.971459
vt 0.116032 0.028541
vt 0.163170 0.995032
vt 0.163170 0.971459
vt 0.304589 0.971459
vt 0.304589 0.995032
vt 0.351727 0.028541
vt 0.351727 0.971459
vt 0.304589 0.971459
vt 0.304589 0.028541
vt 0.304589 0.971459
vt 0.163170 0.971459
vt 0.163170 0.028541
vt 0.304589 0.028541
vt 0.351727 0.028541
vt 0.493146 0.028541
vt 0.493146 0.971459
vt 0.351727 0.971459

vn -0.577350 -0.577350 -0.577350
vn -0.577350 0.577350 -0.577350
vn 0.577350 -0.577350 -0.577350
vn 0.577350 0.577350 -0.577350
vn 0.577350 -0.577350 0.577350
vn 0.577350 0.577350 0.577350
vn -0.577350 -0.577350 0.577350
vn -0.577350 0.577350 0.577350
vn -0.577350 -0.577350 -0.577350
vn -0.577350 0.577350 -0.577350
vn 0.577350 -0.577350 -0.577350
vn 0.577350 0.577350 -0.577350
vn 0.577350 -0.577350 0.577350
vn 0.577350 0.577350 0.577350
vn -0.577350 -0.577350 0.577350
vn -0.577350 0.577350 0.577350

mtllib boardwalk3.mtl

g Default
s 1
usemtl boardwalk3
f 1/1/1 2/2/2 4/3/4 3/4/3
f 4/5/4 6/6/6 5/7/5 3/8/3
f 5/9/5 6/10/6 8/11/8 7/12/7
f 1/13/1 7/14/7 8/15/8 2/16/2
f 8/17/8 6/18/6 4/19/4 2/20/2
f 1/21/1 3/22/3 5/23/5 7/24/7
f 9/25/9 10/26/10 12/27/12 11/28/11
f 12/29/12 14/30/14 13/31/13 11/32/11
f 13/33/13 14/34/14 16/35/16 15/36/15
f 9/37/9 15/38/15 16/39/16 10/40/10
f 16/41/16 14/42/14 12/43/12 10/44/10
f 9/45/9 11/46/11 13/47/13 15/48/15

# The end.
